<?xml version="1.0" encoding="utf-8"?>
<svg version="1.1" id="Capa_1" xmlns="http://www.w3.org/2000/svg" xmlns:xlink="http://www.w3.org/1999/xlink" x="0px" y="0px"
	 viewBox="-440.8 225 378.4 188" style="enable-background:new -440.8 225 378.4 188;" xml:space="preserve">
<style type="text/css">
	.st0{fill:#FF7300;}
</style>
<path class="st0" d="M-231,357.8v52.9h-34.1V225h34.1v103.4h6.5c0.6,0,1.2,0,1.2,0c7.6,0,14.7-3.5,19.4-8.8l39.4-39.4h39.4
	l-59.3,61.1l64.6,68.2h-44.1l-41.7-45.2c-3.5-4.7-9.4-8.2-15.9-8.2c-1.2,0-2.9,0-4.1,0.6h-5.3L-231,357.8L-231,357.8z M-367.4,413
	c48.2,0,72.9-14.1,72.9-65.8c0-47-17.6-68.2-65.8-68.2c-21.2,0-35.3,2.4-46.4,11.2V225h-34.1v124C-440.8,396.5-419.6,413-367.4,413
	L-367.4,413z M-367.9,387.7c-35.3,0-40.5-5.3-40.5-45.2c0-34.1,11.2-38.8,38.8-38.8s39.4,4.1,39.4,38.8
	C-329.7,381.3-336.2,387.7-367.9,387.7z M-96.5,377.7h34.1v32.9h-34.1C-96.5,410.6-96.5,377.7-96.5,377.7z"/>
</svg>
